<?xml version="1.0" encoding="UTF-8" standalone="no"?>
<svg
   xmlns:dc="http://purl.org/dc/elements/1.1/"
   xmlns:cc="http://creativecommons.org/ns#"
   xmlns:rdf="http://www.w3.org/1999/02/22-rdf-syntax-ns#"
   xmlns:svg="http://www.w3.org/2000/svg"
   xmlns="http://www.w3.org/2000/svg"
   xmlns:sodipodi="http://sodipodi.sourceforge.net/DTD/sodipodi-0.dtd"
   xmlns:inkscape="http://www.inkscape.org/namespaces/inkscape"
   inkscape:version="1.0beta2 (2b71d25, 2019-12-03)"
   sodipodi:docname="email.svg"
   xml:space="preserve"
   style="enable-background:new 0 0 109.294 109.294;"
   viewBox="0 0 109.294 109.294"
   y="0px"
   x="0px"
   id="Capa_1"
   version="1.1"><metadata
   id="metadata51"><rdf:RDF><cc:Work
       rdf:about=""><dc:format>image/svg+xml</dc:format><dc:type
         rdf:resource="http://purl.org/dc/dcmitype/StillImage" /><dc:title></dc:title></cc:Work></rdf:RDF></metadata><defs
   id="defs49" /><sodipodi:namedview
   inkscape:current-layer="Capa_1"
   inkscape:window-maximized="0"
   inkscape:window-y="0"
   inkscape:window-x="0"
   inkscape:cy="45.213886"
   inkscape:cx="49.361204"
   inkscape:zoom="6.1485535"
   showgrid="false"
   id="namedview47"
   inkscape:window-height="1050"
   inkscape:window-width="1680"
   inkscape:pageshadow="2"
   inkscape:pageopacity="0"
   guidetolerance="10"
   gridtolerance="10"
   objecttolerance="10"
   borderopacity="1"
   inkscape:document-rotation="0"
   bordercolor="#666666"
   pagecolor="#ffffff" />
<g
   style="fill:#000533;fill-opacity:1"
   id="g14">
	<path
   inkscape:connector-curvature="0"
   style="fill:#000533;fill-opacity:1"
   id="path10"
   d="M 54.648,48.141 101.063,19.2 c -0.505,-0.08 -1.017,-0.132 -1.542,-0.132 H 9.775 c -0.525,0 -1.038,0.054 -1.541,0.132 z" />
	<path
   inkscape:connector-curvature="0"
   style="fill:#000533;fill-opacity:1"
   id="path12"
   d="m 57.569,59.331 c -0.062,0.04 -0.13,0.066 -0.194,0.104 -0.067,0.037 -0.139,0.073 -0.206,0.107 -0.365,0.188 -0.741,0.339 -1.125,0.439 -0.04,0.011 -0.078,0.017 -0.116,0.025 -0.423,0.099 -0.848,0.16 -1.274,0.16 -0.001,0 -0.003,0 -0.004,0 -10e-4,0 -0.003,0 -0.005,0 -0.426,0 -0.852,-0.06 -1.273,-0.16 C 53.333,59.997 53.293,59.991 53.254,59.981 52.87,59.88 52.497,59.729 52.13,59.542 52.061,59.508 51.991,59.472 51.923,59.435 51.858,59.398 51.791,59.372 51.727,59.331 L 0.153,27.172 C 0.06,27.715 0,28.271 0,28.843 v 51.609 c 0,5.398 4.375,9.774 9.774,9.774 H 99.52 c 5.398,0 9.774,-4.376 9.774,-9.774 V 28.843 c 0,-0.572 -0.059,-1.127 -0.154,-1.671 z" />
</g>
<g
   id="g16">
</g>
<g
   id="g18">
</g>
<g
   id="g20">
</g>
<g
   id="g22">
</g>
<g
   id="g24">
</g>
<g
   id="g26">
</g>
<g
   id="g28">
</g>
<g
   id="g30">
</g>
<g
   id="g32">
</g>
<g
   id="g34">
</g>
<g
   id="g36">
</g>
<g
   id="g38">
</g>
<g
   id="g40">
</g>
<g
   id="g42">
</g>
<g
   id="g44">
</g>
</svg>
