<?xml version="1.0" encoding="UTF-8" standalone="no"?>
<svg
   xmlns:dc="http://purl.org/dc/elements/1.1/"
   xmlns:cc="http://creativecommons.org/ns#"
   xmlns:rdf="http://www.w3.org/1999/02/22-rdf-syntax-ns#"
   xmlns:svg="http://www.w3.org/2000/svg"
   xmlns="http://www.w3.org/2000/svg"
   xmlns:sodipodi="http://sodipodi.sourceforge.net/DTD/sodipodi-0.dtd"
   xmlns:inkscape="http://www.inkscape.org/namespaces/inkscape"
   inkscape:version="1.0beta2 (2b71d25, 2019-12-03)"
   sodipodi:docname="smartphone.svg"
   xml:space="preserve"
   style="enable-background:new 0 0 120.386 120.386;"
   viewBox="0 0 120.386 120.386"
   y="0px"
   x="0px"
   id="Capa_1"
   version="1.1"><metadata
   id="metadata872"><rdf:RDF><cc:Work
       rdf:about=""><dc:format>image/svg+xml</dc:format><dc:type
         rdf:resource="http://purl.org/dc/dcmitype/StillImage" /><dc:title></dc:title></cc:Work></rdf:RDF></metadata><defs
   id="defs870" /><sodipodi:namedview
   inkscape:current-layer="Capa_1"
   inkscape:window-maximized="0"
   inkscape:window-y="0"
   inkscape:window-x="0"
   inkscape:cy="60.193001"
   inkscape:cx="60.193001"
   inkscape:zoom="5.5820444"
   showgrid="false"
   id="namedview868"
   inkscape:window-height="1050"
   inkscape:window-width="1680"
   inkscape:pageshadow="2"
   inkscape:pageopacity="0"
   guidetolerance="10"
   gridtolerance="10"
   objecttolerance="10"
   borderopacity="1"
   inkscape:document-rotation="0"
   bordercolor="#666666"
   pagecolor="#ffffff" />
<g
   style="fill:#000533;fill-opacity:1"
   id="g835">
	<path
   style="fill:#000533;fill-opacity:1"
   id="path833"
   d="M81.534,0H38.852C31.6,0,25.719,5.88,25.719,13.133v94.12c0,7.252,5.88,13.133,13.133,13.133h42.682   c7.253,0,13.134-5.881,13.134-13.133v-94.12C94.667,5.88,88.786,0,81.534,0z M60.193,114.452c-3.674,0-6.652-2.976-6.652-6.651   s2.979-6.651,6.652-6.651c3.675,0,6.653,2.976,6.653,6.651S63.868,114.452,60.193,114.452z M82.636,95.023H37.749V15.221   c0-1.648,1.343-2.991,2.993-2.991h38.904c1.648,0,2.992,1.343,2.992,2.991L82.636,95.023L82.636,95.023z" />
</g>
<g
   id="g837">
</g>
<g
   id="g839">
</g>
<g
   id="g841">
</g>
<g
   id="g843">
</g>
<g
   id="g845">
</g>
<g
   id="g847">
</g>
<g
   id="g849">
</g>
<g
   id="g851">
</g>
<g
   id="g853">
</g>
<g
   id="g855">
</g>
<g
   id="g857">
</g>
<g
   id="g859">
</g>
<g
   id="g861">
</g>
<g
   id="g863">
</g>
<g
   id="g865">
</g>
</svg>
